# xmcd
#
# Track frame offsets:
#	150
#	13741
#	30648
#	46438
#	61059
#	80062
#	97997
#	114579
#	131532
#	145069
#	158660
#	175567
#	191357
#	205978
#	224981
#	242916
#	259498
#	276451
#
# Disc length: 3866 seconds
#
# Revision: 1
# Processed by: cddbd v1.5.2PL0 Copyright (c) Steve Scherf et al.
# Submitted via: audiograbber 1.83.01
#
DISCID=0b0f1812
DTITLE=Various Artist - Country 0909-C 20903.9
DYEAR=2009
DGENRE=
TTITLE0=Craig Morgan - Bonfire
TTITLE1=Eli Young Band - Radio Waves
TTITLE2=Whitny Duncan - Skinny Dippin'
TTITLE3=Jake Owen - Eight Second Ride
TTITLE4=Trent Tomlinson - Henry Cartwright's Produce Stand
TTITLE5=Gretchen Wilson - If I Could Do It All Again
TTITLE6=Lady Antebellum - I Was Here
TTITLE7=Lost Trailers - Country Folks Livin' Loud
TTITLE8=Holly Williams - Mama
TTITLE9=Craig Morgan - Bonfire - vocal
TTITLE10=Eli Young Band - Radio Waves - vocal
TTITLE11=Whitney Duncan - Skinny Dippin' - vocal
TTITLE12=Jake Owen - Eight Second Ride - vocal
TTITLE13=Trent Tomlinson - Henry Cartwrights's Produce Sttand - vocal
TTITLE14=Gretchen Wilson - If I Could Do It All Again - vocal
TTITLE15=Lady Antebellum - I Was Here - vocal
TTITLE16=Lost Trailers - Country Folk Livin' Out Loud - vocal
TTITLE17=Holly Williams - Mama - vocal
EXTD=
EXTT0=
EXTT1=
EXTT2=
EXTT3=
EXTT4=
EXTT5=
EXTT6=
EXTT7=
EXTT8=
EXTT9=
EXTT10=
EXTT11=
EXTT12=
EXTT13=
EXTT14=
EXTT15=
EXTT16=
EXTT17=
PLAYORDER=
